<svg width="19" height="13" viewBox="0 0 19 13" fill="none" xmlns="http://www.w3.org/2000/svg">
<path d="M7.68085 4.64894C8.19291 4.13688 8.79929 3.88085 9.5 3.88085C10.2007 3.88085 10.8071 4.13688 11.3191 4.64894C11.8312 5.16099 12.0872 5.76738 12.0872 6.46809C12.0872 7.16879 11.8312 7.77518 11.3191 8.28723C10.8071 8.79929 10.2007 9.05532 9.5 9.05532C8.79929 9.05532 8.19291 8.79929 7.68085 8.28723C7.16879 7.77518 6.91277 7.16879 6.91277 6.46809C6.91277 5.76738 7.16879 5.16099 7.68085 4.64894ZM6.44787 9.52021C7.29681 10.3691 8.31418 10.7936 9.5 10.7936C10.6858 10.7936 11.7032 10.3691 12.5521 9.52021C13.4011 8.67128 13.8255 7.6539 13.8255 6.46809C13.8255 5.28227 13.4011 4.26489 12.5521 3.41596C11.7032 2.56702 10.6858 2.14255 9.5 2.14255C8.31418 2.14255 7.29681 2.56702 6.44787 3.41596C5.59894 4.26489 5.17447 5.28227 5.17447 6.46809C5.17447 7.6539 5.59894 8.67128 6.44787 9.52021ZM3.71915 1.77872C5.44397 0.592908 7.37092 0 9.5 0C11.6291 0 13.556 0.592908 15.2809 1.77872C17.0057 2.96454 18.2454 4.52766 19 6.46809C18.2454 8.40851 17.0057 9.97163 15.2809 11.1574C13.556 12.3433 11.6291 12.9362 9.5 12.9362C7.37092 12.9362 5.44397 12.3433 3.71915 11.1574C1.99433 9.97163 0.75461 8.40851 0 6.46809C0.75461 4.52766 1.99433 2.96454 3.71915 1.77872Z" fill="#94A3B8"/>
</svg>
